<?xml version="1.0" encoding="UTF-8" standalone="no"?>
<!DOCTYPE svg PUBLIC "-//W3C//DTD SVG 1.1//EN"
 "http://www.w3.org/Graphics/SVG/1.1/DTD/svg11.dtd">
<!-- Generated by graphviz version 2.47.0 (20210316.0004)
 -->
<!-- Title: dbml Pages: 1 -->
<svg width="629pt" height="2716pt"
 viewBox="0.00 0.00 628.84 2715.63" xmlns="http://www.w3.org/2000/svg" xmlns:xlink="http://www.w3.org/1999/xlink">
<g id="graph0" class="graph" transform="scale(1 1) rotate(0) translate(4 2711.63)">
<title>dbml</title>
<!-- store -->
<g id="store" class="node">
<title>store</title>
<ellipse fill="none" stroke="black" stroke-width="0" cx="310.42" cy="-299.81" rx="310.34" ry="299.63"/>
<polygon fill="#1d71b8" stroke="transparent" points="93.42,-449.81 93.42,-509.81 528.42,-509.81 528.42,-449.81 93.42,-449.81"/>
<polygon fill="none" stroke="#29235c" points="93.42,-449.81 93.42,-509.81 528.42,-509.81 528.42,-449.81 93.42,-449.81"/>
<text text-anchor="start" x="213.11" y="-471.01" font-family="Helvetica,sans-Serif" font-weight="bold" font-size="32.00" fill="#ffffff"> &#160;&#160;&#160;&#160;&#160;&#160;store &#160;&#160;&#160;&#160;&#160;&#160;</text>
<polygon fill="#e7e2dd" stroke="transparent" points="93.42,-389.81 93.42,-449.81 528.42,-449.81 528.42,-389.81 93.42,-389.81"/>
<polygon fill="none" stroke="#29235c" points="93.42,-389.81 93.42,-449.81 528.42,-449.81 528.42,-389.81 93.42,-389.81"/>
<text text-anchor="start" x="104.42" y="-411.01" font-family="Helvetica,sans-Serif" font-weight="bold" font-size="32.00" fill="#29235c">id</text>
<text text-anchor="start" x="129.31" y="-411.01" font-family="Helvetica,sans-Serif" font-size="32.00" fill="#29235c"> &#160;&#160;&#160;</text>
<text text-anchor="start" x="417.86" y="-411.01" font-family="Helvetica,sans-Serif" font-style="italic" font-size="32.00" fill="#29235c">uuid</text>
<text text-anchor="start" x="478.33" y="-411.01" font-family="Helvetica,sans-Serif" font-size="32.00" fill="#29235c"> </text>
<text text-anchor="start" x="487.22" y="-411.01" font-family="Helvetica,sans-Serif" font-weight="bold" font-size="32.00" fill="#29235c">(!)</text>
<polygon fill="#e7e2dd" stroke="transparent" points="93.42,-329.81 93.42,-389.81 528.42,-389.81 528.42,-329.81 93.42,-329.81"/>
<polygon fill="none" stroke="#29235c" points="93.42,-329.81 93.42,-389.81 528.42,-389.81 528.42,-329.81 93.42,-329.81"/>
<text text-anchor="start" x="104.42" y="-350.01" font-family="Helvetica,sans-Serif" font-size="32.00" fill="#29235c">name &#160;&#160;&#160;</text>
<text text-anchor="start" x="296.98" y="-351.01" font-family="Helvetica,sans-Serif" font-style="italic" font-size="32.00" fill="#29235c">varchar(255)</text>
<text text-anchor="start" x="478.33" y="-351.01" font-family="Helvetica,sans-Serif" font-size="32.00" fill="#29235c"> </text>
<text text-anchor="start" x="487.22" y="-351.01" font-family="Helvetica,sans-Serif" font-weight="bold" font-size="32.00" fill="#29235c">(!)</text>
<polygon fill="#e7e2dd" stroke="transparent" points="93.42,-269.81 93.42,-329.81 528.42,-329.81 528.42,-269.81 93.42,-269.81"/>
<polygon fill="none" stroke="#29235c" points="93.42,-269.81 93.42,-329.81 528.42,-329.81 528.42,-269.81 93.42,-269.81"/>
<text text-anchor="start" x="104.42" y="-290.01" font-family="Helvetica,sans-Serif" font-size="32.00" fill="#29235c">user_id &#160;&#160;&#160;</text>
<text text-anchor="start" x="296.98" y="-291.01" font-family="Helvetica,sans-Serif" font-style="italic" font-size="32.00" fill="#29235c">varchar(255)</text>
<text text-anchor="start" x="478.33" y="-291.01" font-family="Helvetica,sans-Serif" font-size="32.00" fill="#29235c"> </text>
<text text-anchor="start" x="487.22" y="-291.01" font-family="Helvetica,sans-Serif" font-weight="bold" font-size="32.00" fill="#29235c">(!)</text>
<polygon fill="#e7e2dd" stroke="transparent" points="93.42,-209.81 93.42,-269.81 528.42,-269.81 528.42,-209.81 93.42,-209.81"/>
<polygon fill="none" stroke="#29235c" points="93.42,-209.81 93.42,-269.81 528.42,-269.81 528.42,-209.81 93.42,-209.81"/>
<text text-anchor="start" x="104.04" y="-230.01" font-family="Helvetica,sans-Serif" font-size="32.00" fill="#29235c">phone_number &#160;&#160;&#160;</text>
<text text-anchor="start" x="354.14" y="-231.01" font-family="Helvetica,sans-Serif" font-style="italic" font-size="32.00" fill="#29235c">varchar(20)</text>
<polygon fill="#e7e2dd" stroke="transparent" points="93.42,-149.81 93.42,-209.81 528.42,-209.81 528.42,-149.81 93.42,-149.81"/>
<polygon fill="none" stroke="#29235c" points="93.42,-149.81 93.42,-209.81 528.42,-209.81 528.42,-149.81 93.42,-149.81"/>
<text text-anchor="start" x="104.42" y="-170.01" font-family="Helvetica,sans-Serif" font-size="32.00" fill="#29235c">created_at &#160;&#160;&#160;</text>
<text text-anchor="start" x="369.86" y="-171.01" font-family="Helvetica,sans-Serif" font-style="italic" font-size="32.00" fill="#29235c">timestamp</text>
<polygon fill="#e7e2dd" stroke="transparent" points="93.42,-89.81 93.42,-149.81 528.42,-149.81 528.42,-89.81 93.42,-89.81"/>
<polygon fill="none" stroke="#29235c" points="93.42,-89.81 93.42,-149.81 528.42,-149.81 528.42,-89.81 93.42,-89.81"/>
<text text-anchor="start" x="104.42" y="-110.01" font-family="Helvetica,sans-Serif" font-size="32.00" fill="#29235c">updated_at &#160;&#160;&#160;</text>
<text text-anchor="start" x="369.86" y="-111.01" font-family="Helvetica,sans-Serif" font-style="italic" font-size="32.00" fill="#29235c">timestamp</text>
<polygon fill="none" stroke="#29235c" stroke-width="2" points="91.92,-88.81 91.92,-510.81 528.92,-510.81 528.92,-88.81 91.92,-88.81"/>
</g>
<!-- product -->
<g id="product" class="node">
<title>product</title>
<ellipse fill="none" stroke="black" stroke-width="0" cx="310.42" cy="-1044.81" rx="308.1" ry="427.19"/>
<polygon fill="#1d71b8" stroke="transparent" points="94.42,-1284.81 94.42,-1344.81 526.42,-1344.81 526.42,-1284.81 94.42,-1284.81"/>
<polygon fill="none" stroke="#29235c" points="94.42,-1284.81 94.42,-1344.81 526.42,-1344.81 526.42,-1284.81 94.42,-1284.81"/>
<text text-anchor="start" x="194.82" y="-1306.01" font-family="Helvetica,sans-Serif" font-weight="bold" font-size="32.00" fill="#ffffff"> &#160;&#160;&#160;&#160;&#160;&#160;product &#160;&#160;&#160;&#160;&#160;&#160;</text>
<polygon fill="#e7e2dd" stroke="transparent" points="94.42,-1224.81 94.42,-1284.81 526.42,-1284.81 526.42,-1224.81 94.42,-1224.81"/>
<polygon fill="none" stroke="#29235c" points="94.42,-1224.81 94.42,-1284.81 526.42,-1284.81 526.42,-1224.81 94.42,-1224.81"/>
<text text-anchor="start" x="105.42" y="-1246.01" font-family="Helvetica,sans-Serif" font-weight="bold" font-size="32.00" fill="#29235c">id</text>
<text text-anchor="start" x="130.31" y="-1246.01" font-family="Helvetica,sans-Serif" font-size="32.00" fill="#29235c"> &#160;&#160;&#160;</text>
<text text-anchor="start" x="415.86" y="-1246.01" font-family="Helvetica,sans-Serif" font-style="italic" font-size="32.00" fill="#29235c">uuid</text>
<text text-anchor="start" x="476.33" y="-1246.01" font-family="Helvetica,sans-Serif" font-size="32.00" fill="#29235c"> </text>
<text text-anchor="start" x="485.22" y="-1246.01" font-family="Helvetica,sans-Serif" font-weight="bold" font-size="32.00" fill="#29235c">(!)</text>
<polygon fill="#e7e2dd" stroke="transparent" points="94.42,-1164.81 94.42,-1224.81 526.42,-1224.81 526.42,-1164.81 94.42,-1164.81"/>
<polygon fill="none" stroke="#29235c" points="94.42,-1164.81 94.42,-1224.81 526.42,-1224.81 526.42,-1164.81 94.42,-1164.81"/>
<text text-anchor="start" x="105.42" y="-1185.01" font-family="Helvetica,sans-Serif" font-size="32.00" fill="#29235c">name &#160;&#160;&#160;</text>
<text text-anchor="start" x="294.98" y="-1186.01" font-family="Helvetica,sans-Serif" font-style="italic" font-size="32.00" fill="#29235c">varchar(255)</text>
<text text-anchor="start" x="476.33" y="-1186.01" font-family="Helvetica,sans-Serif" font-size="32.00" fill="#29235c"> </text>
<text text-anchor="start" x="485.22" y="-1186.01" font-family="Helvetica,sans-Serif" font-weight="bold" font-size="32.00" fill="#29235c">(!)</text>
<polygon fill="#e7e2dd" stroke="transparent" points="94.42,-1104.81 94.42,-1164.81 526.42,-1164.81 526.42,-1104.81 94.42,-1104.81"/>
<polygon fill="none" stroke="#29235c" points="94.42,-1104.81 94.42,-1164.81 526.42,-1164.81 526.42,-1104.81 94.42,-1104.81"/>
<text text-anchor="start" x="105.29" y="-1125.01" font-family="Helvetica,sans-Serif" font-size="32.00" fill="#29235c">description &#160;&#160;&#160;</text>
<text text-anchor="start" x="295.2" y="-1126.01" font-family="Helvetica,sans-Serif" font-style="italic" font-size="32.00" fill="#29235c">varchar(255)</text>
<text text-anchor="start" x="476.55" y="-1126.01" font-family="Helvetica,sans-Serif" font-size="32.00" fill="#29235c"> </text>
<text text-anchor="start" x="485.44" y="-1126.01" font-family="Helvetica,sans-Serif" font-weight="bold" font-size="32.00" fill="#29235c">(!)</text>
<polygon fill="#e7e2dd" stroke="transparent" points="94.42,-1044.81 94.42,-1104.81 526.42,-1104.81 526.42,-1044.81 94.42,-1044.81"/>
<polygon fill="none" stroke="#29235c" points="94.42,-1044.81 94.42,-1104.81 526.42,-1104.81 526.42,-1044.81 94.42,-1044.81"/>
<text text-anchor="start" x="105.42" y="-1065.01" font-family="Helvetica,sans-Serif" font-size="32.00" fill="#29235c">price &#160;&#160;&#160;</text>
<text text-anchor="start" x="362.56" y="-1066.01" font-family="Helvetica,sans-Serif" font-style="italic" font-size="32.00" fill="#29235c">numeric</text>
<text text-anchor="start" x="476.33" y="-1066.01" font-family="Helvetica,sans-Serif" font-size="32.00" fill="#29235c"> </text>
<text text-anchor="start" x="485.22" y="-1066.01" font-family="Helvetica,sans-Serif" font-weight="bold" font-size="32.00" fill="#29235c">(!)</text>
<polygon fill="#e7e2dd" stroke="transparent" points="94.42,-984.81 94.42,-1044.81 526.42,-1044.81 526.42,-984.81 94.42,-984.81"/>
<polygon fill="none" stroke="#29235c" points="94.42,-984.81 94.42,-1044.81 526.42,-1044.81 526.42,-984.81 94.42,-984.81"/>
<text text-anchor="start" x="105.42" y="-1005.01" font-family="Helvetica,sans-Serif" font-size="32.00" fill="#29235c">stock &#160;&#160;&#160;</text>
<text text-anchor="start" x="378.53" y="-1006.01" font-family="Helvetica,sans-Serif" font-style="italic" font-size="32.00" fill="#29235c">integer</text>
<text text-anchor="start" x="476.33" y="-1006.01" font-family="Helvetica,sans-Serif" font-size="32.00" fill="#29235c"> </text>
<text text-anchor="start" x="485.22" y="-1006.01" font-family="Helvetica,sans-Serif" font-weight="bold" font-size="32.00" fill="#29235c">(!)</text>
<polygon fill="#e7e2dd" stroke="transparent" points="94.42,-924.81 94.42,-984.81 526.42,-984.81 526.42,-924.81 94.42,-924.81"/>
<polygon fill="none" stroke="#29235c" points="94.42,-924.81 94.42,-984.81 526.42,-984.81 526.42,-924.81 94.42,-924.81"/>
<text text-anchor="start" x="105.42" y="-945.01" font-family="Helvetica,sans-Serif" font-size="32.00" fill="#29235c">category_id &#160;&#160;&#160;</text>
<text text-anchor="start" x="454.95" y="-946.01" font-family="Helvetica,sans-Serif" font-style="italic" font-size="32.00" fill="#29235c">uuid</text>
<polygon fill="#e7e2dd" stroke="transparent" points="94.42,-864.81 94.42,-924.81 526.42,-924.81 526.42,-864.81 94.42,-864.81"/>
<polygon fill="none" stroke="#29235c" points="94.42,-864.81 94.42,-924.81 526.42,-924.81 526.42,-864.81 94.42,-864.81"/>
<text text-anchor="start" x="105.42" y="-885.01" font-family="Helvetica,sans-Serif" font-size="32.00" fill="#29235c">store_id &#160;&#160;&#160;</text>
<text text-anchor="start" x="454.95" y="-886.01" font-family="Helvetica,sans-Serif" font-style="italic" font-size="32.00" fill="#29235c">uuid</text>
<polygon fill="#e7e2dd" stroke="transparent" points="94.42,-804.81 94.42,-864.81 526.42,-864.81 526.42,-804.81 94.42,-804.81"/>
<polygon fill="none" stroke="#29235c" points="94.42,-804.81 94.42,-864.81 526.42,-864.81 526.42,-804.81 94.42,-804.81"/>
<text text-anchor="start" x="105.42" y="-825.01" font-family="Helvetica,sans-Serif" font-size="32.00" fill="#29235c">created_at &#160;&#160;&#160;</text>
<text text-anchor="start" x="367.86" y="-826.01" font-family="Helvetica,sans-Serif" font-style="italic" font-size="32.00" fill="#29235c">timestamp</text>
<polygon fill="#e7e2dd" stroke="transparent" points="94.42,-744.81 94.42,-804.81 526.42,-804.81 526.42,-744.81 94.42,-744.81"/>
<polygon fill="none" stroke="#29235c" points="94.42,-744.81 94.42,-804.81 526.42,-804.81 526.42,-744.81 94.42,-744.81"/>
<text text-anchor="start" x="105.42" y="-765.01" font-family="Helvetica,sans-Serif" font-size="32.00" fill="#29235c">updated_at &#160;&#160;&#160;</text>
<text text-anchor="start" x="367.86" y="-766.01" font-family="Helvetica,sans-Serif" font-style="italic" font-size="32.00" fill="#29235c">timestamp</text>
<polygon fill="none" stroke="#29235c" stroke-width="2" points="93.42,-743.81 93.42,-1345.81 527.42,-1345.81 527.42,-743.81 93.42,-743.81"/>
</g>
<!-- category -->
<g id="category" class="node">
<title>category</title>
<ellipse fill="none" stroke="black" stroke-width="0" cx="310.42" cy="-1789.81" rx="280.94" ry="299.63"/>
<polygon fill="#1d71b8" stroke="transparent" points="114.42,-1939.81 114.42,-1999.81 507.42,-1999.81 507.42,-1939.81 114.42,-1939.81"/>
<polygon fill="none" stroke="#29235c" points="114.42,-1939.81 114.42,-1999.81 507.42,-1999.81 507.42,-1939.81 114.42,-1939.81"/>
<text text-anchor="start" x="187.32" y="-1961.01" font-family="Helvetica,sans-Serif" font-weight="bold" font-size="32.00" fill="#ffffff"> &#160;&#160;&#160;&#160;&#160;&#160;category &#160;&#160;&#160;&#160;&#160;&#160;</text>
<polygon fill="#e7e2dd" stroke="transparent" points="114.42,-1879.81 114.42,-1939.81 507.42,-1939.81 507.42,-1879.81 114.42,-1879.81"/>
<polygon fill="none" stroke="#29235c" points="114.42,-1879.81 114.42,-1939.81 507.42,-1939.81 507.42,-1879.81 114.42,-1879.81"/>
<text text-anchor="start" x="125.42" y="-1901.01" font-family="Helvetica,sans-Serif" font-weight="bold" font-size="32.00" fill="#29235c">id</text>
<text text-anchor="start" x="150.31" y="-1901.01" font-family="Helvetica,sans-Serif" font-size="32.00" fill="#29235c"> &#160;&#160;&#160;</text>
<text text-anchor="start" x="396.86" y="-1901.01" font-family="Helvetica,sans-Serif" font-style="italic" font-size="32.00" fill="#29235c">uuid</text>
<text text-anchor="start" x="457.33" y="-1901.01" font-family="Helvetica,sans-Serif" font-size="32.00" fill="#29235c"> </text>
<text text-anchor="start" x="466.22" y="-1901.01" font-family="Helvetica,sans-Serif" font-weight="bold" font-size="32.00" fill="#29235c">(!)</text>
<polygon fill="#e7e2dd" stroke="transparent" points="114.42,-1819.81 114.42,-1879.81 507.42,-1879.81 507.42,-1819.81 114.42,-1819.81"/>
<polygon fill="none" stroke="#29235c" points="114.42,-1819.81 114.42,-1879.81 507.42,-1879.81 507.42,-1819.81 114.42,-1819.81"/>
<text text-anchor="start" x="125.42" y="-1840.01" font-family="Helvetica,sans-Serif" font-size="32.00" fill="#29235c">name &#160;&#160;&#160;</text>
<text text-anchor="start" x="275.98" y="-1841.01" font-family="Helvetica,sans-Serif" font-style="italic" font-size="32.00" fill="#29235c">varchar(100)</text>
<text text-anchor="start" x="457.33" y="-1841.01" font-family="Helvetica,sans-Serif" font-size="32.00" fill="#29235c"> </text>
<text text-anchor="start" x="466.22" y="-1841.01" font-family="Helvetica,sans-Serif" font-weight="bold" font-size="32.00" fill="#29235c">(!)</text>
<polygon fill="#e7e2dd" stroke="transparent" points="114.42,-1759.81 114.42,-1819.81 507.42,-1819.81 507.42,-1759.81 114.42,-1759.81"/>
<polygon fill="none" stroke="#29235c" points="114.42,-1759.81 114.42,-1819.81 507.42,-1819.81 507.42,-1759.81 114.42,-1759.81"/>
<text text-anchor="start" x="125.29" y="-1780.01" font-family="Helvetica,sans-Serif" font-size="32.00" fill="#29235c">description &#160;&#160;&#160;</text>
<text text-anchor="start" x="315.25" y="-1781.01" font-family="Helvetica,sans-Serif" font-style="italic" font-size="32.00" fill="#29235c">varchar(255)</text>
<polygon fill="#e7e2dd" stroke="transparent" points="114.42,-1699.81 114.42,-1759.81 507.42,-1759.81 507.42,-1699.81 114.42,-1699.81"/>
<polygon fill="none" stroke="#29235c" points="114.42,-1699.81 114.42,-1759.81 507.42,-1759.81 507.42,-1699.81 114.42,-1699.81"/>
<text text-anchor="start" x="125.42" y="-1720.01" font-family="Helvetica,sans-Serif" font-size="32.00" fill="#29235c">store_id &#160;&#160;&#160;</text>
<text text-anchor="start" x="435.95" y="-1721.01" font-family="Helvetica,sans-Serif" font-style="italic" font-size="32.00" fill="#29235c">uuid</text>
<polygon fill="#e7e2dd" stroke="transparent" points="114.42,-1639.81 114.42,-1699.81 507.42,-1699.81 507.42,-1639.81 114.42,-1639.81"/>
<polygon fill="none" stroke="#29235c" points="114.42,-1639.81 114.42,-1699.81 507.42,-1699.81 507.42,-1639.81 114.42,-1639.81"/>
<text text-anchor="start" x="125.42" y="-1660.01" font-family="Helvetica,sans-Serif" font-size="32.00" fill="#29235c">created_at &#160;&#160;&#160;</text>
<text text-anchor="start" x="348.86" y="-1661.01" font-family="Helvetica,sans-Serif" font-style="italic" font-size="32.00" fill="#29235c">timestamp</text>
<polygon fill="#e7e2dd" stroke="transparent" points="114.42,-1579.81 114.42,-1639.81 507.42,-1639.81 507.42,-1579.81 114.42,-1579.81"/>
<polygon fill="none" stroke="#29235c" points="114.42,-1579.81 114.42,-1639.81 507.42,-1639.81 507.42,-1579.81 114.42,-1579.81"/>
<text text-anchor="start" x="125.42" y="-1600.01" font-family="Helvetica,sans-Serif" font-size="32.00" fill="#29235c">updated_at &#160;&#160;&#160;</text>
<text text-anchor="start" x="348.86" y="-1601.01" font-family="Helvetica,sans-Serif" font-style="italic" font-size="32.00" fill="#29235c">timestamp</text>
<polygon fill="none" stroke="#29235c" stroke-width="2" points="112.92,-1578.81 112.92,-2000.81 507.92,-2000.81 507.92,-1578.81 112.92,-1578.81"/>
</g>
<!-- image -->
<g id="image" class="node">
<title>image</title>
<ellipse fill="none" stroke="black" stroke-width="0" cx="310.42" cy="-2407.81" rx="260.43" ry="299.63"/>
<polygon fill="#1d71b8" stroke="transparent" points="128.42,-2557.81 128.42,-2617.81 492.42,-2617.81 492.42,-2557.81 128.42,-2557.81"/>
<polygon fill="none" stroke="#29235c" points="128.42,-2557.81 128.42,-2617.81 492.42,-2617.81 492.42,-2557.81 128.42,-2557.81"/>
<text text-anchor="start" x="204.61" y="-2579.01" font-family="Helvetica,sans-Serif" font-weight="bold" font-size="32.00" fill="#ffffff"> &#160;&#160;&#160;&#160;&#160;&#160;image &#160;&#160;&#160;&#160;&#160;&#160;</text>
<polygon fill="#e7e2dd" stroke="transparent" points="128.42,-2497.81 128.42,-2557.81 492.42,-2557.81 492.42,-2497.81 128.42,-2497.81"/>
<polygon fill="none" stroke="#29235c" points="128.42,-2497.81 128.42,-2557.81 492.42,-2557.81 492.42,-2497.81 128.42,-2497.81"/>
<text text-anchor="start" x="139.42" y="-2519.01" font-family="Helvetica,sans-Serif" font-weight="bold" font-size="32.00" fill="#29235c">id</text>
<text text-anchor="start" x="164.31" y="-2519.01" font-family="Helvetica,sans-Serif" font-size="32.00" fill="#29235c"> &#160;&#160;&#160;</text>
<text text-anchor="start" x="381.86" y="-2519.01" font-family="Helvetica,sans-Serif" font-style="italic" font-size="32.00" fill="#29235c">uuid</text>
<text text-anchor="start" x="442.33" y="-2519.01" font-family="Helvetica,sans-Serif" font-size="32.00" fill="#29235c"> </text>
<text text-anchor="start" x="451.22" y="-2519.01" font-family="Helvetica,sans-Serif" font-weight="bold" font-size="32.00" fill="#29235c">(!)</text>
<polygon fill="#e7e2dd" stroke="transparent" points="128.42,-2437.81 128.42,-2497.81 492.42,-2497.81 492.42,-2437.81 128.42,-2437.81"/>
<polygon fill="none" stroke="#29235c" points="128.42,-2437.81 128.42,-2497.81 492.42,-2497.81 492.42,-2437.81 128.42,-2437.81"/>
<text text-anchor="start" x="139.42" y="-2458.01" font-family="Helvetica,sans-Serif" font-size="32.00" fill="#29235c">url &#160;&#160;&#160;</text>
<text text-anchor="start" x="260.98" y="-2459.01" font-family="Helvetica,sans-Serif" font-style="italic" font-size="32.00" fill="#29235c">varchar(255)</text>
<text text-anchor="start" x="442.33" y="-2459.01" font-family="Helvetica,sans-Serif" font-size="32.00" fill="#29235c"> </text>
<text text-anchor="start" x="451.22" y="-2459.01" font-family="Helvetica,sans-Serif" font-weight="bold" font-size="32.00" fill="#29235c">(!)</text>
<polygon fill="#e7e2dd" stroke="transparent" points="128.42,-2377.81 128.42,-2437.81 492.42,-2437.81 492.42,-2377.81 128.42,-2377.81"/>
<polygon fill="none" stroke="#29235c" points="128.42,-2377.81 128.42,-2437.81 492.42,-2437.81 492.42,-2377.81 128.42,-2377.81"/>
<text text-anchor="start" x="139.42" y="-2398.01" font-family="Helvetica,sans-Serif" font-size="32.00" fill="#29235c">product_id &#160;&#160;&#160;</text>
<text text-anchor="start" x="420.95" y="-2399.01" font-family="Helvetica,sans-Serif" font-style="italic" font-size="32.00" fill="#29235c">uuid</text>
<polygon fill="#e7e2dd" stroke="transparent" points="128.42,-2317.81 128.42,-2377.81 492.42,-2377.81 492.42,-2317.81 128.42,-2317.81"/>
<polygon fill="none" stroke="#29235c" points="128.42,-2317.81 128.42,-2377.81 492.42,-2377.81 492.42,-2317.81 128.42,-2317.81"/>
<text text-anchor="start" x="139.42" y="-2338.01" font-family="Helvetica,sans-Serif" font-size="32.00" fill="#29235c">store_id &#160;&#160;&#160;</text>
<text text-anchor="start" x="420.95" y="-2339.01" font-family="Helvetica,sans-Serif" font-style="italic" font-size="32.00" fill="#29235c">uuid</text>
<polygon fill="#e7e2dd" stroke="transparent" points="128.42,-2257.81 128.42,-2317.81 492.42,-2317.81 492.42,-2257.81 128.42,-2257.81"/>
<polygon fill="none" stroke="#29235c" points="128.42,-2257.81 128.42,-2317.81 492.42,-2317.81 492.42,-2257.81 128.42,-2257.81"/>
<text text-anchor="start" x="139.42" y="-2278.01" font-family="Helvetica,sans-Serif" font-size="32.00" fill="#29235c">created_at &#160;&#160;&#160;</text>
<text text-anchor="start" x="333.86" y="-2279.01" font-family="Helvetica,sans-Serif" font-style="italic" font-size="32.00" fill="#29235c">timestamp</text>
<polygon fill="#e7e2dd" stroke="transparent" points="128.42,-2197.81 128.42,-2257.81 492.42,-2257.81 492.42,-2197.81 128.42,-2197.81"/>
<polygon fill="none" stroke="#29235c" points="128.42,-2197.81 128.42,-2257.81 492.42,-2257.81 492.42,-2197.81 128.42,-2197.81"/>
<text text-anchor="start" x="139.09" y="-2218.01" font-family="Helvetica,sans-Serif" font-size="32.00" fill="#29235c">updated_at &#160;&#160;&#160;</text>
<text text-anchor="start" x="334.14" y="-2219.01" font-family="Helvetica,sans-Serif" font-style="italic" font-size="32.00" fill="#29235c">timestamp</text>
<polygon fill="none" stroke="#29235c" stroke-width="2" points="127.42,-2196.81 127.42,-2618.81 493.42,-2618.81 493.42,-2196.81 127.42,-2196.81"/>
</g>
</g>
</svg>
